<svg width="24" height="24" viewBox="0 0 24 24" fill="none" xmlns="http://www.w3.org/2000/svg">
<g clip-path="url(#clip0_961_338)">
<path d="M11.4783 5.3913C8.11831 5.3913 5.39136 8.11825 5.39136 11.4783C5.39136 14.8383 8.11831 17.5652 11.4783 17.5652C14.8383 17.5652 17.5653 14.8383 17.5653 11.4783C17.5653 8.11825 14.8383 5.3913 11.4783 5.3913ZM11.4783 16.3478C8.78788 16.3478 6.60875 14.1687 6.60875 11.4783C6.60875 10.3522 6.99223 9.31738 7.63744 8.49564L14.4609 15.3191C13.6392 15.9643 12.6044 16.3478 11.4783 16.3478ZM15.3192 14.4609L8.49571 7.63738C9.31744 6.99217 10.3522 6.60869 11.4783 6.60869C14.1687 6.60869 16.3479 8.78782 16.3479 11.4783C16.3479 12.6043 15.9644 13.6391 15.3192 14.4609Z" fill="#545454"/>
</g>
<defs>
<clipPath id="clip0_961_338">
<rect width="14.6087" height="14.6087" fill="white" transform="translate(4.17395 4.17392)"/>
</clipPath>
</defs>
</svg>
