<svg width="17" height="17" viewBox="0 0 17 17" fill="none" xmlns="http://www.w3.org/2000/svg">
<path fill-rule="evenodd" clip-rule="evenodd" d="M7.08341 12.4054C3.9538 12.4054 1.41675 9.9369 1.41675 6.89187C1.41675 3.84684 3.9538 1.37836 7.08341 1.37836C10.213 1.37836 12.7501 3.84684 12.7501 6.89187C12.7501 8.166 12.3059 9.33919 11.5599 10.2728L15.3759 13.9857L14.3742 14.9603L10.5582 11.2475C9.59864 11.9732 8.3929 12.4054 7.08341 12.4054ZM11.3335 6.89192C11.3335 9.17569 9.43068 11.0271 7.08347 11.0271C4.73626 11.0271 2.83347 9.17569 2.83347 6.89192C2.83347 4.60814 4.73626 2.75678 7.08347 2.75678C9.43068 2.75678 11.3335 4.60814 11.3335 6.89192Z" fill="#545454"/>
</svg>
